<?xml version="1.0" encoding="utf-8"?>
<!-- Generator: Adobe Illustrator 18.0.0, SVG Export Plug-In . SVG Version: 6.00 Build 0)  -->
<!DOCTYPE svg PUBLIC "-//W3C//DTD SVG 1.1//EN" "http://www.w3.org/Graphics/SVG/1.1/DTD/svg11.dtd">
<svg version="1.1" id="Layer_1" xmlns="http://www.w3.org/2000/svg" xmlns:xlink="http://www.w3.org/1999/xlink" x="0px" y="0px"
	 viewBox="3.2 189.3 422 95" enable-background="new 3.2 189.3 422 95" xml:space="preserve">
<g>
	<path d="M53.4,214.9c4,5,6.1,11.8,6.1,20c0,8.4-2.1,15.3-6.1,21c-4,5.5-9.7,8.4-16.8,8.4c-4.4,0-8.2-0.8-10.9-2.7
		c-1.7-1.1-3.4-2.9-5.3-5.7v6.7H6.7v-73.2h14.1v26.1c1.9-2.5,3.8-4.4,5.9-5.7c2.5-1.7,5.9-2.5,9.9-2.5
		C43.7,207.4,49.4,209.9,53.4,214.9z M41.6,248.2c2.1-2.9,3.2-6.9,3.2-11.6c0-3.8-0.4-6.9-1.5-9.5c-1.9-4.8-5.5-7.1-10.5-7.1
		c-5.3,0-8.8,2.3-10.7,6.9c-1.1,2.5-1.5,5.7-1.5,9.7c0,4.6,1.1,8.4,3.2,11.6c2.1,3.2,5.3,4.6,9.5,4.6
		C36.8,252.6,39.5,251.1,41.6,248.2z"/>
	<path d="M83.4,208.4V241c0,3.2,0.4,5.5,1.1,6.9c1.3,2.7,3.8,4.2,7.6,4.2c4.8,0,8.2-1.9,9.9-5.9c0.8-2.1,1.5-4.8,1.5-8.4v-29.4h14.3
		v54.2h-13.9v-7.6c-0.2,0.2-0.4,0.6-1.1,1.5c-0.6,0.8-1.3,1.5-1.9,2.1c-2.3,1.9-4.4,3.4-6.5,4s-4.4,1.1-7.4,1.1
		c-8,0-13.5-2.9-16.2-8.6c-1.5-3.2-2.3-7.8-2.3-14.1v-32.6H83.4z"/>
	<path d="M130.9,274.4c2.9-0.8,5-2.1,6.3-4c1.3-1.9,2.1-4.4,2.3-7.8h-8.6v-14.9h15.3v12.8c0,2.3-0.2,4.6-0.8,7.1
		c-0.6,2.5-1.7,4.6-3.4,6.3c-1.7,1.9-3.8,3.4-6.1,4.4c-2.3,1.1-4,1.5-4.8,1.5v-5.5H130.9z"/>
	<path d="M205.6,214.3c4.4,4.6,6.7,11.6,6.7,20.6c0,9.5-2.1,16.8-6.5,21.9c-4.4,5-9.9,7.6-16.6,7.6c-4.4,0-8-1.1-10.7-3.2
		c-1.5-1.3-3.2-2.9-4.6-5.3v28.2h-14.1v-75.7h13.7v8c1.5-2.3,3.2-4.2,4.8-5.7c3.2-2.5,6.9-3.6,11.4-3.6
		C195.7,207.4,201.1,209.7,205.6,214.3z M194.6,224.6c-1.9-3.2-5-4.8-9.5-4.8c-5.3,0-8.8,2.5-10.7,7.4c-1.1,2.5-1.5,5.9-1.5,9.9
		c0,6.3,1.7,10.7,5,13.2c2.1,1.5,4.4,2.3,7.1,2.3c4,0,6.9-1.5,9-4.6c2.1-3.2,3.2-7.1,3.2-12.2C197.6,231.5,196.5,227.8,194.6,224.6z
		"/>
	<path d="M252.2,207.2c0.2,0,0.6,0,1.3,0v14.5c-0.8,0-1.7-0.2-2.3-0.2c-0.6,0-1.3,0-1.7,0c-5.7,0-9.5,1.9-11.6,5.7
		c-1.1,2.1-1.7,5.3-1.7,9.7v25.9H222v-54.2h13.5v9.5c2.1-3.6,4-6.1,5.7-7.4c2.7-2.3,6.1-3.4,10.3-3.4
		C251.8,207.2,252,207.2,252.2,207.2z"/>
	<path d="M297.2,209.7c3.8,1.7,6.9,4.4,9.5,8c2.3,3.2,3.6,6.9,4.4,11.1c0.4,2.5,0.6,6.1,0.4,10.7H272c0.2,5.5,2.1,9.2,5.7,11.4
		c2.1,1.3,4.8,2.1,7.8,2.1c3.2,0,5.9-0.8,7.8-2.5c1.1-0.8,2.1-2.1,2.9-3.8h14.5c-0.4,3.2-2.1,6.5-5.3,9.9c-4.8,5.3-11.6,8-20.4,8
		c-7.1,0-13.7-2.3-19.1-6.7c-5.5-4.4-8.2-11.8-8.2-21.7c0-9.5,2.5-16.6,7.6-21.7s11.4-7.6,19.3-7.6C289,207.2,293.4,208,297.2,209.7
		z M276,221.9c-2.1,2.1-3.4,4.8-3.8,8.4h24.4c-0.2-3.8-1.5-6.5-3.8-8.6c-2.3-1.9-5-2.9-8.4-2.9C280.8,218.7,277.9,219.8,276,221.9z"
		/>
	<path d="M329.4,245.4c0.2,2.5,1.1,4.4,1.9,5.5c1.7,1.9,5,2.7,9.9,2.7c2.7,0,5-0.4,6.7-1.3c1.7-0.8,2.5-2.1,2.5-3.8
		s-0.6-2.7-1.9-3.6c-1.3-0.8-6.3-2.3-14.9-4.2c-6.1-1.5-10.5-3.4-13-5.7c-2.5-2.3-3.8-5.5-3.8-9.7c0-5,1.9-9.2,5.9-12.8
		c4-3.6,9.5-5.5,16.6-5.5c6.7,0,12.4,1.3,16.6,4c4.2,2.7,6.7,7.4,7.4,14.1h-14.1c-0.2-1.9-0.6-3.4-1.5-4.4c-1.5-1.9-4.2-2.9-8-2.9
		c-3.2,0-5.3,0.4-6.5,1.5c-1.3,1.1-1.9,2.1-1.9,3.4c0,1.7,0.6,2.7,2.1,3.6c1.5,0.8,6.3,2.1,14.7,4c5.7,1.3,9.9,3.4,12.6,6.1
		c2.7,2.7,4.2,6.1,4.2,10.3c0,5.5-2.1,9.7-6.1,13.2c-4,3.4-10.1,5-18.5,5c-8.6,0-14.9-1.9-18.9-5.5c-4-3.6-6.1-8.2-6.1-13.7h14.1
		V245.4z"/>
	<path d="M386.1,245.4c0.2,2.5,1.1,4.4,1.9,5.5c1.7,1.9,5,2.7,9.9,2.7c2.7,0,5-0.4,6.7-1.3c1.7-0.8,2.5-2.1,2.5-3.8
		s-0.6-2.7-1.9-3.6c-1.3-0.8-6.3-2.3-14.9-4.2c-6.1-1.5-10.5-3.4-13-5.7s-3.8-5.5-3.8-9.7c0-5,1.9-9.2,5.9-12.8
		c4-3.6,9.5-5.5,16.6-5.5c6.7,0,12.4,1.3,16.6,4c4.2,2.7,6.7,7.4,7.4,14.1h-14.1c-0.2-1.9-0.6-3.4-1.5-4.4c-1.5-1.9-4.2-2.9-8-2.9
		c-3.2,0-5.3,0.4-6.5,1.5c-1.3,1.1-1.9,2.1-1.9,3.4c0,1.7,0.6,2.7,2.1,3.6c1.5,0.8,6.3,2.1,14.7,4c5.7,1.3,9.9,3.4,12.6,6.1
		c2.7,2.7,4.2,6.1,4.2,10.3c0,5.5-2.1,9.7-6.1,13.2c-4,3.4-10.1,5-18.5,5c-8.6,0-14.9-1.9-18.9-5.5c-4-3.6-6.1-8.2-6.1-13.7h14.1
		V245.4z"/>
</g>
</svg>
