<?xml version="1.0" encoding="utf-8"?>
<!-- Generator: Adobe Illustrator 18.0.0, SVG Export Plug-In . SVG Version: 6.00 Build 0)  -->
<!DOCTYPE svg PUBLIC "-//W3C//DTD SVG 1.1//EN" "http://www.w3.org/Graphics/SVG/1.1/DTD/svg11.dtd">
<svg version="1.1" id="Layer_1" xmlns="http://www.w3.org/2000/svg" xmlns:xlink="http://www.w3.org/1999/xlink" x="0px" y="0px"
	 viewBox="330 130 300 300" enable-background="new 330 130 300 300" xml:space="preserve">
<rect x="330" y="130" width="300" height="300"/>
<g>
	<path fill="#FFFFFF" d="M375.9,370.8c2.2,2.8,3.4,6.5,3.4,11.1c0,4.7-1.2,8.5-3.4,11.6c-2.2,3-5.4,4.7-9.3,4.7
		c-2.4,0-4.5-0.4-6-1.5c-0.9-0.6-1.9-1.6-2.9-3.2v3.7H350v-40.5h7.8v14.5c1.1-1.4,2.1-2.4,3.3-3.2c1.4-0.9,3.3-1.4,5.5-1.4
		C370.5,366.7,373.6,368.1,375.9,370.8z M369.3,389.3c1.2-1.6,1.8-3.8,1.8-6.4c0-2.1-0.2-3.8-0.8-5.3c-1.1-2.7-3-3.9-5.8-3.9
		c-2.9,0-4.9,1.3-5.9,3.8c-0.6,1.4-0.8,3.2-0.8,5.4c0,2.5,0.6,4.7,1.8,6.4c1.2,1.8,2.9,2.5,5.3,2.5
		C366.7,391.7,368.2,390.9,369.3,389.3z"/>
	<path fill="#FFFFFF" d="M392.5,367.2v18.1c0,1.8,0.2,3,0.6,3.8c0.7,1.5,2.1,2.3,4.2,2.3c2.7,0,4.5-1.1,5.5-3.3
		c0.4-1.2,0.8-2.7,0.8-4.7v-16.3h7.9v30h-7.7v-4.2c-0.1,0.1-0.2,0.3-0.6,0.8c-0.3,0.4-0.7,0.8-1.1,1.2c-1.3,1.1-2.4,1.9-3.6,2.2
		c-1.2,0.3-2.4,0.6-4.1,0.6c-4.4,0-7.5-1.6-9-4.8c-0.8-1.8-1.3-4.3-1.3-7.8v-18.1H392.5z"/>
	<path fill="#FFFFFF" d="M418.8,403.8c1.6-0.4,2.8-1.2,3.5-2.2c0.7-1.1,1.2-2.4,1.3-4.3h-4.8V389h8.5v7.1c0,1.3-0.1,2.5-0.4,3.9
		c-0.3,1.4-0.9,2.5-1.9,3.5c-0.9,1.1-2.1,1.9-3.4,2.4c-1.3,0.6-2.2,0.8-2.7,0.8v-3L418.8,403.8L418.8,403.8z"/>
	<path fill="#FFFFFF" d="M460.2,370.5c2.4,2.5,3.7,6.4,3.7,11.4c0,5.3-1.2,9.3-3.6,12.1c-2.4,2.8-5.5,4.2-9.2,4.2
		c-2.4,0-4.4-0.6-5.9-1.8c-0.8-0.7-1.8-1.6-2.5-2.9v15.6h-7.8v-41.9h7.6v4.4c0.8-1.3,1.8-2.3,2.7-3.2c1.8-1.4,3.8-2,6.3-2
		C454.7,366.7,457.7,368,460.2,370.5z M454.1,376.2c-1.1-1.8-2.8-2.7-5.3-2.7c-2.9,0-4.9,1.4-5.9,4.1c-0.6,1.4-0.8,3.3-0.8,5.5
		c0,3.5,0.9,5.9,2.8,7.3c1.2,0.8,2.4,1.3,3.9,1.3c2.2,0,3.8-0.8,5-2.5c1.2-1.8,1.8-3.9,1.8-6.8C455.7,380,455.1,378,454.1,376.2z"/>
	<path fill="#FFFFFF" d="M486,366.6c0.1,0,0.3,0,0.7,0v8c-0.4,0-0.9-0.1-1.3-0.1c-0.3,0-0.7,0-0.9,0c-3.2,0-5.3,1.1-6.4,3.2
		c-0.6,1.2-0.9,2.9-0.9,5.4v14.3h-7.9v-30h7.5v5.3c1.2-2,2.2-3.4,3.2-4.1c1.5-1.3,3.4-1.9,5.7-1.9
		C485.7,366.6,485.8,366.6,486,366.6z"/>
	<path fill="#FFFFFF" d="M510.9,368c2.1,0.9,3.8,2.4,5.3,4.4c1.3,1.8,2,3.8,2.4,6.1c0.2,1.4,0.3,3.4,0.2,5.9h-21.9
		c0.1,3,1.2,5.1,3.2,6.3c1.2,0.7,2.7,1.2,4.3,1.2c1.8,0,3.3-0.4,4.3-1.4c0.6-0.4,1.2-1.2,1.6-2.1h8c-0.2,1.8-1.2,3.6-2.9,5.5
		c-2.7,2.9-6.4,4.4-11.3,4.4c-3.9,0-7.6-1.3-10.6-3.7c-3-2.4-4.5-6.5-4.5-12c0-5.3,1.4-9.2,4.2-12c2.8-2.8,6.3-4.2,10.7-4.2
		C506.3,366.6,508.8,367,510.9,368z M499.1,374.7c-1.2,1.2-1.9,2.7-2.1,4.7h13.5c-0.1-2.1-0.8-3.6-2.1-4.8c-1.3-1.1-2.8-1.6-4.7-1.6
		C501.8,372.9,500.2,373.6,499.1,374.7z"/>
	<path fill="#FFFFFF" d="M528.7,387.7c0.1,1.4,0.6,2.4,1.1,3c0.9,1.1,2.8,1.5,5.5,1.5c1.5,0,2.8-0.2,3.7-0.7
		c0.9-0.4,1.4-1.2,1.4-2.1s-0.3-1.5-1.1-2c-0.7-0.4-3.5-1.3-8.3-2.3c-3.4-0.8-5.8-1.9-7.2-3.2c-1.4-1.3-2.1-3-2.1-5.4
		c0-2.8,1.1-5.1,3.3-7.1s5.3-3,9.2-3c3.7,0,6.9,0.7,9.2,2.2c2.3,1.5,3.7,4.1,4.1,7.8h-7.8c-0.1-1.1-0.3-1.9-0.8-2.4
		c-0.8-1.1-2.3-1.6-4.4-1.6c-1.8,0-2.9,0.2-3.6,0.8c-0.7,0.6-1.1,1.2-1.1,1.9c0,0.9,0.3,1.5,1.2,2c0.8,0.4,3.5,1.2,8.1,2.2
		c3.2,0.7,5.5,1.9,7,3.4c1.5,1.5,2.3,3.4,2.3,5.7c0,3-1.2,5.4-3.4,7.3c-2.2,1.9-5.6,2.8-10.2,2.8c-4.8,0-8.3-1.1-10.5-3
		s-3.4-4.5-3.4-7.6h7.8V387.7L528.7,387.7z"/>
	<path fill="#FFFFFF" d="M560.1,387.7c0.1,1.4,0.6,2.4,1.1,3c0.9,1.1,2.8,1.5,5.5,1.5c1.5,0,2.8-0.2,3.7-0.7
		c0.9-0.4,1.4-1.2,1.4-2.1s-0.3-1.5-1.1-2c-0.7-0.4-3.5-1.3-8.3-2.3c-3.4-0.8-5.8-1.9-7.2-3.2s-2.1-3-2.1-5.4c0-2.8,1.1-5.1,3.3-7.1
		c2.2-2,5.3-3,9.2-3c3.7,0,6.9,0.7,9.2,2.2c2.3,1.5,3.7,4.1,4.1,7.8h-7.8c-0.1-1.1-0.3-1.9-0.8-2.4c-0.8-1.1-2.3-1.6-4.4-1.6
		c-1.8,0-2.9,0.2-3.6,0.8c-0.7,0.6-1.1,1.2-1.1,1.9c0,0.9,0.3,1.5,1.2,2c0.8,0.4,3.5,1.2,8.1,2.2c3.2,0.7,5.5,1.9,7,3.4
		c1.5,1.5,2.3,3.4,2.3,5.7c0,3-1.2,5.4-3.4,7.3c-2.2,1.9-5.6,2.8-10.2,2.8c-4.8,0-8.3-1.1-10.5-3c-2.2-2-3.4-4.5-3.4-7.6h7.8
		L560.1,387.7L560.1,387.7z"/>
</g>
</svg>
