<?xml version="1.0" encoding="utf-8"?>
<!-- Generator: Adobe Illustrator 16.0.3, SVG Export Plug-In . SVG Version: 6.00 Build 0)  -->
<!DOCTYPE svg PUBLIC "-//W3C//DTD SVG 1.1//EN" "http://www.w3.org/Graphics/SVG/1.1/DTD/svg11.dtd">
<svg version="1.1" id="Layer_1" xmlns="http://www.w3.org/2000/svg" xmlns:xlink="http://www.w3.org/1999/xlink" x="0px" y="0px"
	 width="552.586px" height="169.721px" viewBox="0 0 552.586 169.721" enable-background="new 0 0 552.586 169.721"
	 xml:space="preserve">
<g>
	<path fill="#FFFFFF" d="M148.812,48.237h-42.52v-6.074h42.52V48.237z"/>
	<path fill="#FFFFFF" d="M62.64,99.555h-5.896v-2.23c-1.586,1.677-3.6,2.515-6.045,2.515c-2.387,0-4.299-0.718-5.723-2.142
		c-1.643-1.646-2.463-3.937-2.463-6.882v-15.48h6.086v14.65c0,1.516,0.43,2.66,1.285,3.432c0.709,0.652,1.6,0.979,2.668,0.979
		c1.104,0,2.008-0.326,2.711-0.979c0.855-0.771,1.287-1.916,1.287-3.432v-14.65h6.09V99.555z"/>
	<path fill="#FFFFFF" d="M88.519,99.555h-6.088V84.912c0-1.516-0.43-2.665-1.295-3.438c-0.711-0.646-1.604-0.979-2.68-0.979
		c-1.109,0-2.02,0.333-2.725,0.979c-0.871,0.773-1.299,1.923-1.299,3.438v14.644h-6.041v-24.22h5.904v2.231
		c1.584-1.67,3.598-2.508,6.045-2.508c2.389,0,4.291,0.714,5.717,2.139c1.643,1.639,2.461,3.934,2.461,6.877V99.555z"/>
	<path fill="#FFFFFF" d="M100.458,71.243h-6.09V66.32h6.09V71.243z M100.458,99.555h-6.09v-24.22h6.09V99.555z"/>
	<path fill="#FFFFFF" d="M126.563,87.424c0,2.476-0.115,4.341-0.332,5.573c-0.338,2.022-1.055,3.566-2.139,4.651
		c-1.451,1.461-3.424,2.19-5.902,2.19c-2.48,0-4.49-0.849-6.041-2.557v2.272h-5.857V66.459h6.088v11.013
		c1.455-1.604,3.395-2.413,5.842-2.413c2.469,0,4.432,0.729,5.877,2.188c1.082,1.084,1.795,2.629,2.133,4.645
		C126.448,83.132,126.563,84.975,126.563,87.424z M120.47,87.424c0-2.135-0.17-3.671-0.504-4.603
		c-0.617-1.551-1.795-2.327-3.539-2.327c-1.748,0-2.928,0.776-3.539,2.327c-0.34,0.932-0.508,2.468-0.508,4.603
		c0,2.139,0.168,3.671,0.508,4.601c0.611,1.585,1.791,2.371,3.539,2.371c1.744,0,2.922-0.786,3.539-2.371
		C120.3,91.095,120.47,89.563,120.47,87.424z"/>
	<path fill="#FFFFFF" d="M148.812,99.555H130.36v-4.596l10.738-14.181h-10.133v-5.443h17.846v4.605l-10.875,14.178h10.875V99.555z"
		/>
	<path fill="#FFFFFF" d="M148.812,127.203h-42.52v-6.075h42.52V127.203z"/>
	<path fill="#FFFFFF" d="M62.64,99.555h-5.896v-2.23c-1.586,1.677-3.6,2.515-6.045,2.515c-2.387,0-4.299-0.718-5.723-2.142
		c-1.643-1.646-2.463-3.937-2.463-6.882v-15.48h6.086v14.65c0,1.516,0.43,2.66,1.285,3.432c0.709,0.652,1.6,0.979,2.668,0.979
		c1.104,0,2.008-0.326,2.711-0.979c0.855-0.771,1.287-1.916,1.287-3.432v-14.65h6.09V99.555z"/>
	<path fill="#FFFFFF" d="M88.519,99.555h-6.088V84.912c0-1.516-0.43-2.665-1.295-3.438c-0.711-0.646-1.604-0.979-2.68-0.979
		c-1.109,0-2.02,0.333-2.725,0.979c-0.871,0.773-1.299,1.923-1.299,3.438v14.644h-6.041v-24.22h5.904v2.231
		c1.584-1.67,3.598-2.508,6.045-2.508c2.389,0,4.291,0.714,5.717,2.139c1.643,1.639,2.461,3.934,2.461,6.877V99.555z"/>
	<path fill="#FFFFFF" d="M100.458,71.243h-6.09V66.32h6.09V71.243z M100.458,99.555h-6.09v-24.22h6.09V99.555z"/>
	<path fill="#FFFFFF" d="M126.563,87.424c0,2.476-0.115,4.341-0.332,5.573c-0.338,2.022-1.055,3.566-2.139,4.651
		c-1.451,1.461-3.424,2.19-5.902,2.19c-2.48,0-4.49-0.849-6.041-2.557v2.272h-5.857V66.459h6.088v11.013
		c1.455-1.604,3.395-2.413,5.842-2.413c2.469,0,4.432,0.729,5.877,2.188c1.082,1.084,1.795,2.629,2.133,4.645
		C126.448,83.132,126.563,84.975,126.563,87.424z M120.47,87.424c0-2.135-0.17-3.671-0.504-4.603
		c-0.617-1.551-1.795-2.327-3.539-2.327c-1.748,0-2.928,0.776-3.539,2.327c-0.34,0.932-0.508,2.468-0.508,4.603
		c0,2.139,0.168,3.671,0.508,4.601c0.611,1.585,1.791,2.371,3.539,2.371c1.744,0,2.922-0.786,3.539-2.371
		C120.3,91.095,120.47,89.563,120.47,87.424z"/>
	<path fill="#FFFFFF" d="M148.812,99.555H130.36v-4.596l10.738-14.181h-10.133v-5.443h17.846v4.605l-10.875,14.178h10.875V99.555z"
		/>
	<g>
		<path fill="#FFFFFF" d="M194.674,45.137v4.2h6.745v2.977h-6.745v6.937h-3.336V42.161h11.257v2.976H194.674z"/>
		<path fill="#FFFFFF" d="M211.31,50.154c-0.48-0.48-0.889-0.744-1.656-0.744c-0.96,0-2.017,0.72-2.017,2.304v7.537h-3.12V46.746
			h3.049v1.2c0.6-0.72,1.8-1.344,3.144-1.344c1.225,0,2.089,0.312,2.952,1.176L211.31,50.154z"/>
		<path fill="#FFFFFF" d="M217.661,53.97c0,1.608,0.984,2.784,2.736,2.784c1.368,0,2.04-0.384,2.832-1.176l1.896,1.848
			c-1.272,1.272-2.496,1.968-4.752,1.968c-2.953,0-5.785-1.344-5.785-6.409c0-4.08,2.208-6.384,5.448-6.384
			c3.48,0,5.449,2.544,5.449,5.977v1.392H217.661z M222.126,50.49c-0.336-0.744-1.032-1.296-2.089-1.296
			c-1.056,0-1.752,0.552-2.088,1.296c-0.192,0.456-0.264,0.792-0.288,1.344h4.753C222.39,51.282,222.317,50.946,222.126,50.49z"/>
		<path fill="#FFFFFF" d="M228.107,44.609v-2.544h3.192v2.544H228.107z M228.155,59.25V46.746h3.12V59.25H228.155z"/>
		<path fill="#FFFFFF" d="M237.047,53.97c0,1.608,0.984,2.784,2.736,2.784c1.368,0,2.04-0.384,2.832-1.176l1.896,1.848
			c-1.272,1.272-2.496,1.968-4.753,1.968c-2.952,0-5.784-1.344-5.784-6.409c0-4.08,2.208-6.384,5.448-6.384
			c3.48,0,5.449,2.544,5.449,5.977v1.392H237.047z M241.512,50.49c-0.336-0.744-1.032-1.296-2.089-1.296
			c-1.056,0-1.752,0.552-2.088,1.296c-0.192,0.456-0.264,0.792-0.288,1.344h4.753C241.775,51.282,241.703,50.946,241.512,50.49z"/>
		<path fill="#FFFFFF" d="M259.582,59.395c-3.504,0-6.288-2.376-6.288-6V42.161h3.336v11.113c0,1.968,1.152,3.145,2.952,3.145
			s2.977-1.176,2.977-3.145V42.161h3.313v11.233C265.871,57.018,263.087,59.395,259.582,59.395z"/>
		<path fill="#FFFFFF" d="M276.464,59.25V51.69c0-1.704-1.08-2.28-2.063-2.28c-0.984,0-2.089,0.576-2.089,2.28v7.561h-3.12V46.746
			h3.049v1.152c0.815-0.864,1.968-1.296,3.12-1.296c1.248,0,2.256,0.408,2.952,1.104c1.008,1.008,1.272,2.184,1.272,3.552v7.993
			H276.464z"/>
		<path fill="#FFFFFF" d="M282.737,44.609v-2.544h3.192v2.544H282.737z M282.785,59.25V46.746h3.12V59.25H282.785z"/>
		<path fill="#FFFFFF" d="M294.978,59.25h-2.448l-4.608-12.505h3.289l2.544,7.729l2.521-7.729h3.288L294.978,59.25z"/>
		<path fill="#FFFFFF" d="M303.61,53.97c0,1.608,0.984,2.784,2.736,2.784c1.368,0,2.04-0.384,2.832-1.176l1.896,1.848
			c-1.272,1.272-2.496,1.968-4.752,1.968c-2.953,0-5.785-1.344-5.785-6.409c0-4.08,2.208-6.384,5.448-6.384
			c3.48,0,5.449,2.544,5.449,5.977v1.392H303.61z M308.075,50.49c-0.336-0.744-1.032-1.296-2.089-1.296
			c-1.056,0-1.752,0.552-2.088,1.296c-0.192,0.456-0.264,0.792-0.288,1.344h4.753C308.339,51.282,308.267,50.946,308.075,50.49z"/>
		<path fill="#FFFFFF" d="M320.95,50.154c-0.48-0.48-0.889-0.744-1.656-0.744c-0.96,0-2.017,0.72-2.017,2.304v7.537h-3.12V46.746
			h3.049v1.2c0.6-0.72,1.8-1.344,3.144-1.344c1.225,0,2.089,0.312,2.952,1.176L320.95,50.154z"/>
		<path fill="#FFFFFF" d="M329.302,59.395c-1.968,0-3.744-0.216-5.328-1.8l2.04-2.04c1.032,1.032,2.376,1.176,3.336,1.176
			c1.08,0,2.208-0.36,2.208-1.296c0-0.624-0.336-1.056-1.319-1.152l-1.969-0.192c-2.256-0.216-3.648-1.2-3.648-3.504
			c0-2.592,2.28-3.984,4.825-3.984c1.943,0,3.576,0.336,4.776,1.464l-1.921,1.944c-0.72-0.648-1.824-0.84-2.904-0.84
			c-1.248,0-1.775,0.576-1.775,1.2c0,0.456,0.191,0.984,1.296,1.08l1.968,0.192c2.473,0.24,3.721,1.561,3.721,3.672
			C334.606,58.074,332.254,59.395,329.302,59.395z"/>
		<path fill="#FFFFFF" d="M337.055,44.609v-2.544h3.192v2.544H337.055z M337.103,59.25V46.746h3.12V59.25H337.103z"/>
		<path fill="#FFFFFF" d="M347.489,59.25c-2.544,0-3.624-1.8-3.624-3.576v-6.193h-1.32v-2.376h1.32v-3.696h3.12v3.696h2.208v2.376
			h-2.208v6c0,0.72,0.336,1.128,1.08,1.128h1.128v2.64H347.489z"/>
		<path fill="#FFFFFF" d="M358.554,59.25v-1.08c-0.841,0.84-1.633,1.2-3.072,1.2c-1.417,0-2.448-0.36-3.192-1.104
			c-0.673-0.696-1.032-1.705-1.032-2.809c0-1.992,1.368-3.624,4.272-3.624h2.952V51.21c0-1.368-0.672-1.968-2.328-1.968
			c-1.2,0-1.752,0.288-2.4,1.032l-1.992-1.944c1.224-1.344,2.424-1.728,4.513-1.728c3.504,0,5.328,1.488,5.328,4.416v8.233H358.554z
			 M352.696,44.705v-3h2.665v3H352.696z M358.481,53.97h-2.473c-1.128,0-1.752,0.528-1.752,1.416c0,0.864,0.576,1.44,1.8,1.44
			c0.864,0,1.417-0.072,1.969-0.6c0.336-0.312,0.456-0.816,0.456-1.584V53.97z M358.001,44.705v-3h2.664v3H358.001z"/>
		<path fill="#FFFFFF" d="M368.784,59.25c-2.544,0-3.624-1.8-3.624-3.576v-6.193h-1.32v-2.376h1.32v-3.696h3.12v3.696h2.208v2.376
			h-2.208v6c0,0.72,0.336,1.128,1.08,1.128h1.128v2.64H368.784z"/>
		<path fill="#FFFFFF" d="M386.28,59.25h-7.152V42.161h6.864c3.337,0,5.281,1.872,5.281,4.8c0,1.896-1.249,3.12-2.112,3.528
			c1.031,0.48,2.352,1.56,2.352,3.84C391.513,57.522,389.329,59.25,386.28,59.25z M385.729,45.137h-3.265v3.937h3.265
			c1.416,0,2.208-0.792,2.208-1.968S387.145,45.137,385.729,45.137z M385.944,52.074h-3.48v4.201h3.48
			c1.513,0,2.232-0.96,2.232-2.112C388.177,53.01,387.457,52.074,385.944,52.074z"/>
		<path fill="#FFFFFF" d="M403.203,57.858c-0.768,0.816-2.04,1.536-3.888,1.536c-1.849,0-3.097-0.72-3.864-1.536
			c-1.129-1.176-1.417-2.592-1.417-4.873c0-2.256,0.288-3.672,1.417-4.848c0.768-0.816,2.016-1.536,3.864-1.536
			c1.848,0,3.12,0.72,3.888,1.536c1.128,1.176,1.416,2.592,1.416,4.848C404.619,55.266,404.331,56.682,403.203,57.858z
			 M400.779,49.962c-0.36-0.36-0.84-0.552-1.464-0.552s-1.08,0.192-1.44,0.552c-0.648,0.648-0.72,1.728-0.72,3.024
			c0,1.296,0.071,2.4,0.72,3.048c0.36,0.36,0.816,0.552,1.44,0.552s1.104-0.192,1.464-0.552c0.648-0.648,0.72-1.752,0.72-3.048
			C401.499,51.69,401.428,50.61,400.779,49.962z"/>
		<path fill="#FFFFFF" d="M406.556,59.25v-2.376l5.545-7.321h-5.232v-2.808h9.217v2.376l-5.616,7.321h5.616v2.808H406.556z"/>
		<path fill="#FFFFFF" d="M421.116,53.97c0,1.608,0.984,2.784,2.736,2.784c1.368,0,2.04-0.384,2.832-1.176l1.896,1.848
			c-1.272,1.272-2.496,1.968-4.752,1.968c-2.953,0-5.785-1.344-5.785-6.409c0-4.08,2.208-6.384,5.448-6.384
			c3.48,0,5.449,2.544,5.449,5.977v1.392H421.116z M425.581,50.49c-0.336-0.744-1.032-1.296-2.089-1.296
			c-1.056,0-1.752,0.552-2.088,1.296c-0.192,0.456-0.264,0.792-0.288,1.344h4.753C425.845,51.282,425.772,50.946,425.581,50.49z"/>
		<path fill="#FFFFFF" d="M438.936,59.25V51.69c0-1.704-1.08-2.28-2.063-2.28c-0.984,0-2.089,0.576-2.089,2.28v7.561h-3.12V46.746
			h3.049v1.152c0.815-0.864,1.968-1.296,3.12-1.296c1.248,0,2.256,0.408,2.952,1.104c1.008,1.008,1.272,2.184,1.272,3.552v7.993
			H438.936z"/>
		<path fill="#FFFFFF" d="M191.338,93.25V76.161h3.336v14.113h7.753v2.976H191.338z"/>
		<path fill="#FFFFFF" d="M204.807,78.609v-2.544h3.192v2.544H204.807z M204.854,93.25V80.746h3.12V93.25H204.854z"/>
		<path fill="#FFFFFF" d="M220.438,92.267c-0.696,0.696-1.824,1.128-3.049,1.128c-1.32,0-2.256-0.36-3.12-1.32v1.176h-3.024V76.161
			h3.12v5.688c0.816-0.912,1.753-1.248,3.024-1.248c1.225,0,2.353,0.432,3.049,1.128c1.248,1.248,1.271,3.384,1.271,5.256
			S221.687,91.018,220.438,92.267z M216.478,83.41c-1.872,0-2.112,1.536-2.112,3.576s0.24,3.601,2.112,3.601
			s2.112-1.561,2.112-3.601S218.35,83.41,216.478,83.41z"/>
		<path fill="#FFFFFF" d="M227.126,87.97c0,1.608,0.984,2.784,2.736,2.784c1.368,0,2.04-0.384,2.832-1.176l1.896,1.848
			c-1.272,1.272-2.496,1.968-4.752,1.968c-2.953,0-5.785-1.344-5.785-6.409c0-4.08,2.208-6.384,5.448-6.384
			c3.48,0,5.449,2.544,5.449,5.977v1.392H227.126z M231.591,84.49c-0.336-0.744-1.032-1.296-2.089-1.296
			c-1.056,0-1.752,0.552-2.088,1.296c-0.192,0.456-0.264,0.792-0.288,1.344h4.753C231.854,85.282,231.782,84.946,231.591,84.49z"/>
		<path fill="#FFFFFF" d="M244.466,84.154c-0.48-0.48-0.889-0.744-1.656-0.744c-0.96,0-2.017,0.72-2.017,2.304v7.537h-3.12V80.746
			h3.049v1.2c0.6-0.72,1.8-1.344,3.144-1.344c1.225,0,2.089,0.312,2.952,1.176L244.466,84.154z"/>
		<path fill="#FFFFFF" d="M255.402,93.25v-1.08c-0.841,0.84-1.633,1.2-3.072,1.2c-1.417,0-2.448-0.36-3.192-1.104
			c-0.673-0.696-1.032-1.705-1.032-2.809c0-1.992,1.368-3.624,4.272-3.624h2.952V85.21c0-1.368-0.672-1.968-2.328-1.968
			c-1.2,0-1.752,0.288-2.4,1.032l-1.992-1.944c1.224-1.344,2.424-1.728,4.513-1.728c3.504,0,5.328,1.488,5.328,4.416v8.233H255.402z
			 M255.33,87.97h-2.473c-1.128,0-1.752,0.528-1.752,1.416c0,0.864,0.576,1.44,1.8,1.44c0.864,0,1.417-0.072,1.969-0.6
			c0.336-0.312,0.456-0.816,0.456-1.584V87.97z"/>
		<path fill="#FFFFFF" d="M273.642,93.395c-3.504,0-6.288-2.376-6.288-6V76.161h3.336v11.113c0,1.968,1.152,3.145,2.952,3.145
			s2.977-1.176,2.977-3.145V76.161h3.313v11.233C279.931,91.018,277.146,93.395,273.642,93.395z"/>
		<path fill="#FFFFFF" d="M290.523,93.25V85.69c0-1.704-1.08-2.28-2.063-2.28c-0.984,0-2.089,0.576-2.089,2.28v7.561h-3.12V80.746
			h3.049v1.152c0.815-0.864,1.968-1.296,3.12-1.296c1.248,0,2.256,0.408,2.952,1.104c1.008,1.008,1.272,2.184,1.272,3.552v7.993
			H290.523z"/>
		<path fill="#FFFFFF" d="M296.797,78.609v-2.544h3.192v2.544H296.797z M296.845,93.25V80.746h3.12V93.25H296.845z"/>
		<path fill="#FFFFFF" d="M309.036,93.25h-2.448l-4.608-12.505h3.289l2.544,7.729l2.521-7.729h3.288L309.036,93.25z"/>
		<path fill="#FFFFFF" d="M317.669,87.97c0,1.608,0.984,2.784,2.736,2.784c1.368,0,2.04-0.384,2.832-1.176l1.896,1.848
			c-1.272,1.272-2.496,1.968-4.752,1.968c-2.953,0-5.785-1.344-5.785-6.409c0-4.08,2.208-6.384,5.448-6.384
			c3.48,0,5.449,2.544,5.449,5.977v1.392H317.669z M322.134,84.49c-0.336-0.744-1.032-1.296-2.089-1.296
			c-1.056,0-1.752,0.552-2.088,1.296c-0.192,0.456-0.264,0.792-0.288,1.344h4.753C322.397,85.282,322.325,84.946,322.134,84.49z"/>
		<path fill="#FFFFFF" d="M335.01,84.154c-0.48-0.48-0.889-0.744-1.656-0.744c-0.96,0-2.017,0.72-2.017,2.304v7.537h-3.12V80.746
			h3.049v1.2c0.6-0.72,1.8-1.344,3.144-1.344c1.225,0,2.089,0.312,2.952,1.176L335.01,84.154z"/>
		<path fill="#FFFFFF" d="M343.36,93.395c-1.968,0-3.744-0.216-5.328-1.8l2.04-2.04c1.032,1.032,2.376,1.176,3.336,1.176
			c1.08,0,2.208-0.36,2.208-1.296c0-0.624-0.336-1.056-1.319-1.152l-1.969-0.192c-2.256-0.216-3.648-1.2-3.648-3.504
			c0-2.592,2.28-3.984,4.825-3.984c1.943,0,3.576,0.336,4.776,1.464l-1.921,1.944c-0.72-0.648-1.824-0.84-2.904-0.84
			c-1.248,0-1.775,0.576-1.775,1.2c0,0.456,0.191,0.984,1.296,1.08l1.968,0.192c2.473,0.24,3.721,1.561,3.721,3.672
			C348.665,92.074,346.313,93.395,343.36,93.395z"/>
		<path fill="#FFFFFF" d="M351.114,78.609v-2.544h3.192v2.544H351.114z M351.162,93.25V80.746h3.12V93.25H351.162z"/>
		<path fill="#FFFFFF" d="M361.549,93.25c-2.544,0-3.624-1.8-3.624-3.576v-6.193h-1.32v-2.376h1.32v-3.696h3.12v3.696h2.208v2.376
			h-2.208v6c0,0.72,0.336,1.128,1.08,1.128h1.128v2.64H361.549z"/>
		<path fill="#FFFFFF" d="M372.613,93.25v-1.08c-0.841,0.84-1.633,1.2-3.072,1.2c-1.417,0-2.448-0.36-3.192-1.104
			c-0.673-0.696-1.032-1.705-1.032-2.809c0-1.992,1.368-3.624,4.272-3.624h2.952V85.21c0-1.368-0.672-1.968-2.328-1.968
			c-1.2,0-1.752,0.288-2.4,1.032l-1.992-1.944c1.224-1.344,2.424-1.728,4.513-1.728c3.504,0,5.328,1.488,5.328,4.416v8.233H372.613z
			 M369.948,78.753l-2.736-4.081h3.289l1.536,4.081H369.948z M372.541,87.97h-2.473c-1.128,0-1.752,0.528-1.752,1.416
			c0,0.864,0.576,1.44,1.8,1.44c0.864,0,1.417-0.072,1.969-0.6c0.336-0.312,0.456-0.816,0.456-1.584V87.97z"/>
		<path fill="#FFFFFF" d="M391.502,93.25v-1.176c-0.864,0.96-1.776,1.32-3.097,1.32c-1.224,0-2.376-0.432-3.072-1.128
			c-1.248-1.249-1.272-3.409-1.272-5.281s0.024-4.008,1.272-5.256c0.696-0.696,1.824-1.128,3.049-1.128
			c1.271,0,2.231,0.336,3.048,1.248v-5.688h3.12V93.25H391.502z M389.294,83.41c-1.873,0-2.112,1.536-2.112,3.576
			s0.239,3.601,2.112,3.601c1.872,0,2.136-1.561,2.136-3.601S391.166,83.41,389.294,83.41z"/>
		<path fill="#FFFFFF" d="M397.813,78.609v-2.544h3.192v2.544H397.813z M397.861,93.25V80.746h3.12V93.25H397.861z"/>
		<path fill="#FFFFFF" d="M417.421,93.25h-7.152V76.161h6.864c3.337,0,5.281,1.872,5.281,4.8c0,1.896-1.249,3.12-2.112,3.528
			c1.031,0.48,2.352,1.56,2.352,3.84C422.653,91.522,420.47,93.25,417.421,93.25z M416.869,79.137h-3.265v3.937h3.265
			c1.416,0,2.208-0.792,2.208-1.968S418.285,79.137,416.869,79.137z M417.085,86.074h-3.48v4.201h3.48
			c1.513,0,2.232-0.96,2.232-2.112C419.317,87.01,418.598,86.074,417.085,86.074z"/>
		<path fill="#FFFFFF" d="M434.343,91.858c-0.768,0.816-2.04,1.536-3.888,1.536c-1.849,0-3.097-0.72-3.864-1.536
			c-1.129-1.176-1.417-2.592-1.417-4.873c0-2.256,0.288-3.672,1.417-4.848c0.768-0.816,2.016-1.536,3.864-1.536
			c1.848,0,3.12,0.72,3.888,1.536c1.129,1.176,1.416,2.592,1.416,4.848C435.759,89.266,435.472,90.682,434.343,91.858z
			 M431.919,83.962c-0.36-0.36-0.84-0.552-1.464-0.552s-1.08,0.192-1.44,0.552c-0.648,0.648-0.72,1.728-0.72,3.024
			c0,1.296,0.071,2.4,0.72,3.048c0.36,0.36,0.816,0.552,1.44,0.552s1.104-0.192,1.464-0.552c0.648-0.648,0.72-1.752,0.72-3.048
			C432.639,85.69,432.567,84.61,431.919,83.962z"/>
		<path fill="#FFFFFF" d="M442.119,93.25c-2.568,0-3.648-1.8-3.648-3.576V76.161h3.12v13.321c0,0.744,0.313,1.128,1.104,1.128h1.2
			v2.64H442.119z"/>
		<path fill="#FFFFFF" d="M445.828,93.25v-2.376l5.545-7.321h-5.232v-2.808h9.217v2.376l-5.616,7.321h5.616v2.808H445.828z"/>
		<path fill="#FFFFFF" d="M464.718,93.25v-1.08c-0.841,0.84-1.633,1.2-3.072,1.2c-1.417,0-2.448-0.36-3.192-1.104
			c-0.673-0.696-1.032-1.705-1.032-2.809c0-1.992,1.368-3.624,4.272-3.624h2.952V85.21c0-1.368-0.672-1.968-2.328-1.968
			c-1.2,0-1.752,0.288-2.4,1.032l-1.992-1.944c1.224-1.344,2.424-1.728,4.513-1.728c3.504,0,5.328,1.488,5.328,4.416v8.233H464.718z
			 M464.646,87.97h-2.473c-1.128,0-1.752,0.528-1.752,1.416c0,0.864,0.576,1.44,1.8,1.44c0.864,0,1.417-0.072,1.969-0.6
			c0.336-0.312,0.456-0.816,0.456-1.584V87.97z"/>
		<path fill="#FFFFFF" d="M478.253,93.25V85.69c0-1.704-1.08-2.28-2.063-2.28c-0.984,0-2.089,0.576-2.089,2.28v7.561h-3.12V80.746
			h3.049v1.152c0.815-0.864,1.968-1.296,3.12-1.296c1.248,0,2.256,0.408,2.952,1.104c1.008,1.008,1.272,2.184,1.272,3.552v7.993
			H478.253z"/>
		<path fill="#FFFFFF" d="M493.241,91.858c-0.768,0.816-2.04,1.536-3.888,1.536c-1.849,0-3.097-0.72-3.864-1.536
			c-1.129-1.176-1.417-2.592-1.417-4.873c0-2.256,0.288-3.672,1.417-4.848c0.768-0.816,2.016-1.536,3.864-1.536
			c1.848,0,3.12,0.72,3.888,1.536c1.129,1.176,1.416,2.592,1.416,4.848C494.657,89.266,494.37,90.682,493.241,91.858z
			 M490.817,83.962c-0.36-0.36-0.84-0.552-1.464-0.552s-1.08,0.192-1.44,0.552c-0.648,0.648-0.72,1.728-0.72,3.024
			c0,1.296,0.071,2.4,0.72,3.048c0.36,0.36,0.816,0.552,1.44,0.552s1.104-0.192,1.464-0.552c0.648-0.648,0.72-1.752,0.72-3.048
			C491.537,85.69,491.466,84.61,490.817,83.962z"/>
		<path fill="#FFFFFF" d="M197.362,127.395c-3.504,0-6.288-2.376-6.288-6v-11.233h3.336v11.113c0,1.968,1.152,3.145,2.952,3.145
			s2.977-1.176,2.977-3.145v-11.113h3.313v11.233C203.651,125.018,200.866,127.395,197.362,127.395z"/>
		<path fill="#FFFFFF" d="M214.244,127.25v-7.561c0-1.704-1.08-2.28-2.063-2.28c-0.984,0-2.089,0.576-2.089,2.28v7.561h-3.12
			v-12.505h3.049v1.152c0.815-0.864,1.968-1.296,3.12-1.296c1.248,0,2.256,0.408,2.952,1.104c1.008,1.008,1.272,2.184,1.272,3.552
			v7.993H214.244z"/>
		<path fill="#FFFFFF" d="M220.518,112.609v-2.544h3.192v2.544H220.518z M220.565,127.25v-12.505h3.12v12.505H220.565z"/>
		<path fill="#FFFFFF" d="M232.757,127.25h-2.448l-4.608-12.505h3.289l2.544,7.729l2.521-7.729h3.288L232.757,127.25z"/>
		<path fill="#FFFFFF" d="M241.39,121.97c0,1.608,0.984,2.784,2.736,2.784c1.368,0,2.04-0.384,2.832-1.176l1.896,1.848
			c-1.272,1.272-2.496,1.968-4.752,1.968c-2.953,0-5.785-1.344-5.785-6.409c0-4.08,2.208-6.384,5.448-6.384
			c3.48,0,5.449,2.544,5.449,5.977v1.392H241.39z M245.854,118.49c-0.336-0.744-1.032-1.296-2.089-1.296
			c-1.056,0-1.752,0.552-2.088,1.296c-0.192,0.456-0.264,0.792-0.288,1.344h4.753C246.118,119.282,246.046,118.946,245.854,118.49z"
			/>
		<path fill="#FFFFFF" d="M258.729,118.154c-0.48-0.48-0.889-0.744-1.656-0.744c-0.96,0-2.017,0.72-2.017,2.304v7.537h-3.12v-12.505
			h3.049v1.2c0.6-0.72,1.8-1.344,3.144-1.344c1.225,0,2.089,0.312,2.952,1.176L258.729,118.154z"/>
		<path fill="#FFFFFF" d="M267.081,127.395c-1.968,0-3.744-0.216-5.328-1.8l2.04-2.04c1.032,1.032,2.376,1.176,3.336,1.176
			c1.08,0,2.208-0.36,2.208-1.296c0-0.624-0.336-1.056-1.319-1.152l-1.969-0.192c-2.256-0.216-3.648-1.2-3.648-3.504
			c0-2.592,2.28-3.984,4.825-3.984c1.943,0,3.576,0.336,4.776,1.464l-1.921,1.944c-0.72-0.648-1.824-0.84-2.904-0.84
			c-1.248,0-1.775,0.576-1.775,1.2c0,0.456,0.191,0.984,1.296,1.08l1.968,0.192c2.473,0.24,3.721,1.561,3.721,3.672
			C272.386,126.074,270.033,127.395,267.081,127.395z"/>
		<path fill="#FFFFFF" d="M274.835,112.609v-2.544h3.192v2.544H274.835z M274.883,127.25v-12.505h3.12v12.505H274.883z"/>
		<path fill="#FFFFFF" d="M285.27,127.25c-2.544,0-3.624-1.8-3.624-3.576v-6.193h-1.32v-2.376h1.32v-3.696h3.12v3.696h2.208v2.376
			h-2.208v6c0,0.72,0.336,1.128,1.08,1.128h1.128v2.64H285.27z"/>
		<path fill="#FFFFFF" d="M296.335,127.25v-1.08c-0.841,0.84-1.633,1.2-3.072,1.2c-1.417,0-2.448-0.36-3.192-1.104
			c-0.673-0.696-1.032-1.705-1.032-2.809c0-1.992,1.368-3.624,4.272-3.624h2.952v-0.624c0-1.368-0.672-1.968-2.328-1.968
			c-1.2,0-1.752,0.288-2.4,1.032l-1.992-1.944c1.224-1.344,2.424-1.728,4.513-1.728c3.504,0,5.328,1.488,5.328,4.416v8.233H296.335z
			 M293.67,112.753l-2.736-4.081h3.289l1.536,4.081H293.67z M296.263,121.97h-2.473c-1.128,0-1.752,0.528-1.752,1.416
			c0,0.864,0.576,1.44,1.8,1.44c0.864,0,1.417-0.072,1.969-0.6c0.336-0.312,0.456-0.816,0.456-1.584V121.97z"/>
		<path fill="#FFFFFF" d="M308.551,127.25v-17.089h3.336v14.113h7.753v2.976H308.551z"/>
		<path fill="#FFFFFF" d="M322.02,112.609v-2.544h3.192v2.544H322.02z M322.067,127.25v-12.505h3.12v12.505H322.067z"/>
		<path fill="#FFFFFF" d="M330.959,121.97c0,1.608,0.984,2.784,2.736,2.784c1.368,0,2.04-0.384,2.832-1.176l1.896,1.848
			c-1.272,1.272-2.496,1.968-4.753,1.968c-2.952,0-5.784-1.344-5.784-6.409c0-4.08,2.208-6.384,5.448-6.384
			c3.48,0,5.449,2.544,5.449,5.977v1.392H330.959z M335.424,118.49c-0.336-0.744-1.032-1.296-2.089-1.296
			c-1.056,0-1.752,0.552-2.088,1.296c-0.192,0.456-0.264,0.792-0.288,1.344h4.753C335.688,119.282,335.615,118.946,335.424,118.49z"
			/>
		<path fill="#FFFFFF" d="M348.522,127.25v-1.176c-0.864,0.96-1.776,1.32-3.097,1.32c-1.224,0-2.376-0.432-3.072-1.128
			c-1.248-1.249-1.272-3.409-1.272-5.281s0.024-4.008,1.272-5.256c0.696-0.696,1.824-1.128,3.049-1.128
			c1.271,0,2.231,0.336,3.048,1.248v-5.688h3.12v17.089H348.522z M346.314,117.41c-1.873,0-2.112,1.536-2.112,3.576
			s0.239,3.601,2.112,3.601c1.872,0,2.136-1.561,2.136-3.601S348.187,117.41,346.314,117.41z"/>
		<path fill="#FFFFFF" d="M354.833,112.609v-2.544h3.192v2.544H354.833z M354.881,127.25v-12.505h3.12v12.505H354.881z"/>
		<path fill="#FFFFFF" d="M367.748,127.25v-1.08c-0.841,0.84-1.633,1.2-3.072,1.2c-1.417,0-2.448-0.36-3.192-1.104
			c-0.673-0.696-1.032-1.705-1.032-2.809c0-1.992,1.368-3.624,4.272-3.624h2.952v-0.624c0-1.368-0.672-1.968-2.328-1.968
			c-1.2,0-1.752,0.288-2.4,1.032l-1.992-1.944c1.224-1.344,2.424-1.728,4.513-1.728c3.504,0,5.328,1.488,5.328,4.416v8.233H367.748z
			 M367.676,121.97h-2.473c-1.128,0-1.752,0.528-1.752,1.416c0,0.864,0.576,1.44,1.8,1.44c0.864,0,1.417-0.072,1.969-0.6
			c0.336-0.312,0.456-0.816,0.456-1.584V121.97z"/>
		<path fill="#FFFFFF" d="M386.636,127.25v-1.176c-0.864,0.96-1.776,1.32-3.097,1.32c-1.224,0-2.376-0.432-3.072-1.128
			c-1.248-1.249-1.272-3.409-1.272-5.281s0.024-4.008,1.272-5.256c0.696-0.696,1.824-1.128,3.049-1.128
			c1.271,0,2.231,0.336,3.048,1.248v-5.688h3.12v17.089H386.636z M384.428,117.41c-1.873,0-2.112,1.536-2.112,3.576
			s0.239,3.601,2.112,3.601c1.872,0,2.136-1.561,2.136-3.601S386.3,117.41,384.428,117.41z"/>
		<path fill="#FFFFFF" d="M395.479,121.97c0,1.608,0.984,2.784,2.736,2.784c1.368,0,2.04-0.384,2.832-1.176l1.896,1.848
			c-1.272,1.272-2.496,1.968-4.753,1.968c-2.952,0-5.784-1.344-5.784-6.409c0-4.08,2.208-6.384,5.448-6.384
			c3.48,0,5.449,2.544,5.449,5.977v1.392H395.479z M399.943,118.49c-0.336-0.744-1.032-1.296-2.089-1.296
			c-1.056,0-1.752,0.552-2.088,1.296c-0.192,0.456-0.264,0.792-0.288,1.344h4.753C400.207,119.282,400.135,118.946,399.943,118.49z"
			/>
		<path fill="#FFFFFF" d="M419.143,127.25h-7.152v-17.089h6.864c3.337,0,5.281,1.872,5.281,4.8c0,1.896-1.249,3.12-2.112,3.528
			c1.032,0.48,2.352,1.56,2.352,3.84C424.375,125.522,422.191,127.25,419.143,127.25z M418.591,113.137h-3.265v3.937h3.265
			c1.416,0,2.208-0.792,2.208-1.968S420.007,113.137,418.591,113.137z M418.807,120.074h-3.48v4.201h3.48
			c1.513,0,2.232-0.96,2.232-2.112C421.039,121.01,420.319,120.074,418.807,120.074z"/>
		<path fill="#FFFFFF" d="M434.542,127.25v-1.152c-0.816,0.864-1.969,1.296-3.121,1.296c-1.248,0-2.256-0.408-2.952-1.104
			c-1.008-1.008-1.271-2.184-1.271-3.552v-7.993h3.12v7.561c0,1.704,1.08,2.28,2.064,2.28c0.983,0,2.088-0.576,2.088-2.28v-7.561
			h3.12v12.505H434.542z"/>
		<path fill="#FFFFFF" d="M444.465,127.25c-2.568,0-3.648-1.8-3.648-3.576v-13.513h3.12v13.321c0,0.744,0.313,1.128,1.104,1.128h1.2
			v2.64H444.465z"/>
		<path fill="#FFFFFF" d="M453.328,127.395c-1.968,0-3.744-0.216-5.328-1.8l2.04-2.04c1.032,1.032,2.376,1.176,3.336,1.176
			c1.08,0,2.208-0.36,2.208-1.296c0-0.624-0.336-1.056-1.319-1.152l-1.969-0.192c-2.256-0.216-3.648-1.2-3.648-3.504
			c0-2.592,2.28-3.984,4.825-3.984c1.943,0,3.576,0.336,4.776,1.464l-1.921,1.944c-0.72-0.648-1.824-0.84-2.904-0.84
			c-1.248,0-1.775,0.576-1.775,1.2c0,0.456,0.191,0.984,1.296,1.08l1.968,0.192c2.473,0.24,3.721,1.561,3.721,3.672
			C458.633,126.074,456.28,127.395,453.328,127.395z"/>
		<path fill="#FFFFFF" d="M467.923,127.25v-1.08c-0.841,0.84-1.633,1.2-3.072,1.2c-1.417,0-2.448-0.36-3.192-1.104
			c-0.673-0.696-1.032-1.705-1.032-2.809c0-1.992,1.368-3.624,4.272-3.624h2.952v-0.624c0-1.368-0.672-1.968-2.328-1.968
			c-1.2,0-1.752,0.288-2.4,1.032l-1.992-1.944c1.224-1.344,2.424-1.728,4.513-1.728c3.504,0,5.328,1.488,5.328,4.416v8.233H467.923z
			 M467.851,121.97h-2.473c-1.128,0-1.752,0.528-1.752,1.416c0,0.864,0.576,1.44,1.8,1.44c0.864,0,1.417-0.072,1.969-0.6
			c0.336-0.312,0.456-0.816,0.456-1.584V121.97z"/>
		<path fill="#FFFFFF" d="M481.459,127.25v-7.561c0-1.704-1.08-2.28-2.063-2.28c-0.984,0-2.089,0.576-2.089,2.28v7.561h-3.12
			v-12.505h3.049v1.152c0.815-0.864,1.968-1.296,3.12-1.296c1.248,0,2.256,0.408,2.952,1.104c1.008,1.008,1.272,2.184,1.272,3.552
			v7.993H481.459z"/>
	</g>
</g>
</svg>
